<?xml version="1.0" standalone="no"?>
<!DOCTYPE svg PUBLIC "-//W3C//DTD SVG 20010904//EN"
 "http://www.w3.org/TR/2001/REC-SVG-20010904/DTD/svg10.dtd">
<svg version="1.0" xmlns="http://www.w3.org/2000/svg"
 width="150pt" height="150pt" viewBox="0 0 835.000000 392.000000"
 preserveAspectRatio="xMidYMid meet">

<g transform="translate(0.000000,392.000000) scale(0.100000,-0.100000)"
fill="#000000" stroke="none">
<path d="M5079 3283 c-11 -3 -15 -12 -11 -28 5 -29 -1 -30 -58 -10 -43 15 -50
14 -2202 -447 l-2158 -463 0 -27 0 -27 -54 16 c-30 8 -66 13 -80 9 l-26 -6 0
-329 0 -330 55 -20 c30 -11 66 -23 80 -27 l25 -6 0 -122 0 -121 518 -172 c284
-95 962 -321 1505 -503 543 -181 997 -330 1008 -330 11 0 777 162 1702 361
925 198 1837 393 2027 434 190 40 398 85 463 99 65 14 120 26 123 26 7 0 5
920 -2 1001 l-7 74 -1426 478 c-784 262 -1435 476 -1446 476 -11 -1 -27 -3
-36 -6z m1360 -444 c1614 -540 1519 -508 1501 -509 -16 0 -2805 927 -2830 941
-12 7 -12 8 -1 9 8 0 606 -198 1330 -441z m-1273 396 c41 -14 48 -23 36 -42
-12 -20 -122 24 -122 49 0 20 11 19 86 -7z m1297 -490 c823 -275 1493 -502
1489 -506 -4 -3 -225 -52 -492 -108 -267 -57 -651 -138 -855 -182 -374 -80
-409 -86 -434 -70 -9 6 17 16 80 30 89 19 758 162 1272 271 294 62 290 61 280
70 -13 12 -2836 950 -2860 950 -11 0 -243 -47 -515 -105 -271 -58 -565 -121
-653 -140 -88 -19 -331 -70 -540 -115 -209 -45 -726 -155 -1150 -245 -1145
-244 -1237 -264 -1243 -270 -6 -5 6 -10 163 -63 66 -22 347 -118 625 -212
1074 -364 2055 -690 2076 -690 12 0 62 9 111 20 48 11 205 44 348 75 143 31
321 69 395 85 823 180 920 198 920 171 0 -3 -240 -57 -533 -120 -292 -63 -577
-124 -632 -136 -55 -12 -221 -48 -370 -79 l-270 -58 -985 332 c-542 182 -1215
409 -1497 503 -281 94 -510 173 -509 175 3 2 966 211 1236 267 63 13 295 63
515 110 220 47 555 119 745 160 387 82 669 143 1325 285 248 54 453 97 456 96
4 0 679 -226 1502 -501z m-1237 428 c-10 -10 -19 5 -10 18 6 11 8 11 12 0 2
-7 1 -15 -2 -18z m1379 -417 c721 -241 1314 -441 1318 -446 5 -4 7 -15 5 -23
-2 -12 -276 76 -1318 424 -723 241 -1318 440 -1321 441 -4 2 -10 14 -14 27 -5
18 -4 23 6 19 8 -3 604 -202 1324 -442z m-1665 25 c0 -226 -3 -412 -8 -415 -4
-2 -61 -16 -127 -30 -66 -14 -266 -57 -445 -96 -179 -39 -480 -104 -670 -145
-190 -41 -562 -122 -827 -180 l-482 -105 -293 99 c-1207 408 -1213 410 -1207
416 2 2 60 15 129 29 69 14 242 50 385 81 230 50 755 161 1220 260 88 19 457
97 820 175 363 77 775 165 915 195 357 76 490 105 530 114 19 5 41 9 48 10 9
1 12 -87 12 -408z m1440 -67 c773 -257 1396 -470 1385 -472 -32 -6 -1081 -229
-1283 -272 -100 -22 -192 -40 -205 -40 -12 0 -314 98 -672 218 l-650 218 -3
413 c-2 329 0 412 10 409 7 -3 645 -216 1418 -474z m-788 -576 c350 -117 634
-216 630 -220 -15 -14 -88 -24 -117 -16 -23 7 -104 -7 -347 -59 -273 -58 -318
-70 -318 -85 0 -10 -3 -18 -6 -18 -5 0 -741 -158 -1139 -245 -110 -24 -289
-62 -397 -86 l-197 -42 -603 202 c-332 111 -623 210 -647 218 l-44 17 199 43
c110 24 312 68 449 97 1103 239 1702 370 1770 385 44 10 91 19 105 20 14 1
312 -94 662 -211z m-3132 -425 c580 -195 1090 -367 1133 -381 l77 -26 0 -477
0 -478 -27 9 c-16 4 -692 230 -1503 502 l-1475 494 -3 112 c-1 62 -1 112 1
112 1 0 608 -202 1347 -449 960 -321 1353 -448 1373 -444 l27 5 0 333 0 332
-67 21 c-38 11 -552 183 -1143 382 -591 198 -1180 396 -1307 438 -209 69 -233
79 -233 99 0 20 21 15 373 -104 204 -69 847 -285 1427 -480z m5520 573 c0 -29
-3 -33 -20 -29 -32 8 -26 63 7 63 8 0 13 -12 13 -34z m-7222 -56 c114 -38 650
-218 1192 -400 542 -182 1083 -363 1202 -403 119 -39 214 -75 212 -79 -2 -4
-410 130 -907 296 -496 167 -1127 379 -1402 471 -275 92 -507 171 -515 176
-39 22 26 4 218 -61z m1467 -522 c523 -175 988 -331 1035 -346 l85 -28 3 -317
c1 -174 1 -317 -1 -317 -4 0 -2810 937 -2829 945 -17 7 -18 32 -18 325 l0 318
388 -130 c213 -72 815 -274 1337 -450z m5765 43 l0 -479 -22 -5 c-13 -3 -153
-33 -313 -67 -358 -76 -296 -63 -2309 -494 -912 -196 -1660 -356 -1662 -356
-2 0 -4 215 -4 478 l0 478 288 62 c273 58 941 202 1122 242 47 10 163 35 258
55 l172 37 80 -27 80 -27 0 -92 c0 -51 5 -97 11 -103 6 -6 25 -7 52 -2 35 6
499 107 575 124 21 5 22 9 22 118 0 61 -4 118 -8 125 -5 7 -28 18 -53 26 -40
12 -42 14 -19 19 14 3 176 38 360 77 381 81 720 153 1190 255 85 18 161 34
168 34 9 1 12 -101 12 -478z m-1810 110 c63 -22 111 -40 105 -40 -5 -1 -140
-31 -300 -67 l-290 -66 -113 38 c-62 21 -107 41 -100 43 7 3 139 33 293 67
154 34 282 62 285 63 3 0 57 -17 120 -38z m147 -77 c-6 -6 -574 -124 -598
-124 -10 0 -19 4 -19 9 0 5 51 21 113 35 481 111 492 113 500 99 5 -8 7 -17 4
-19z m3 -104 c0 -49 -2 -90 -3 -90 -2 0 -55 -11 -118 -25 -213 -48 -481 -105
-490 -105 -8 0 -14 179 -6 180 1 1 137 29 302 64 165 35 303 64 308 65 4 0 7
-39 7 -89z m-634 -91 l0 -84 -3 77 -4 77 -37 12 c-105 34 -202 72 -202 79 0 5
55 -11 123 -35 l122 -43 1 -83z m-2298 -566 c-3 -293 -4 -318 -20 -321 -17 -3
-18 17 -18 311 0 172 3 317 7 320 3 4 12 7 20 7 11 0 13 -57 11 -317z"/>
<path d="M638 2195 c-8 -19 -8 -28 2 -40 29 -35 62 -4 42 41 -15 31 -29 31
-44 -1z m25 -22 c5 -26 4 -26 -9 -9 -7 10 -11 23 -8 27 8 14 11 11 17 -18z"/>
<path d="M636 1675 c-8 -22 11 -65 29 -65 20 0 31 46 15 65 -16 19 -36 19 -44
0z m26 -20 c3 -14 1 -25 -3 -25 -5 0 -9 11 -9 25 0 14 2 25 4 25 2 0 6 -11 8
-25z"/>
</g>
</svg>
