<?xml version="1.0" standalone="no"?>
<!DOCTYPE svg PUBLIC "-//W3C//DTD SVG 20010904//EN"
 "http://www.w3.org/TR/2001/REC-SVG-20010904/DTD/svg10.dtd">
<svg version="1.0" xmlns="http://www.w3.org/2000/svg"
 width="150pt" height="150pt" viewBox="0 0 778.000000 434.000000"
 preserveAspectRatio="xMidYMid meet">

<g transform="translate(0.000000,434.000000) scale(0.100000,-0.100000)"
fill="#000000" stroke="none">
<path d="M5535 3723 c-11 -2 -37 -9 -57 -14 l-38 -10 0 -684 c0 -377 -3 -685
-7 -685 -7 0 -388 -80 -548 -115 -60 -13 -387 -83 -725 -155 -338 -71 -644
-137 -680 -145 -36 -8 -236 -51 -445 -95 -634 -135 -760 -162 -764 -166 -11
-10 49 0 306 56 539 115 1129 242 1263 270 142 30 439 94 985 210 182 39 395
85 475 101 l146 31 967 -322 c532 -178 966 -324 965 -325 -2 -3 -1516 -329
-1953 -421 -253 -54 -1011 -217 -1065 -229 -36 -8 -173 -38 -305 -66 -132 -28
-584 -125 -1004 -215 -421 -90 -770 -164 -778 -164 -11 0 -13 121 -13 679 l0
679 -152 51 c-84 27 -530 176 -990 330 -720 240 -842 278 -870 271 -18 -4 -45
-11 -60 -14 l-28 -6 0 -839 0 -839 903 -301 c496 -166 937 -313 980 -328 l79
-27 91 18 c51 10 119 24 152 32 33 8 231 50 440 95 464 98 1788 381 1940 414
107 23 477 102 800 170 88 19 372 80 630 135 259 56 648 139 865 185 217 46
419 89 448 95 l52 12 0 836 0 837 -182 62 c-101 34 -406 136 -678 228 -906
306 -1113 375 -1119 374 -3 -1 -15 -3 -26 -6z m406 -132 c1652 -556 1566 -525
1518 -535 -41 -9 -92 7 -1013 314 -965 322 -971 324 -931 336 22 7 41 13 41
13 1 1 174 -57 385 -128z m501 -233 l968 -323 0 -678 c0 -539 -3 -678 -12
-674 -7 3 -448 151 -980 328 l-968 324 0 672 c0 524 3 673 12 673 7 0 448
-145 980 -322z m1085 -1954 c-2 -2 -118 -28 -258 -58 -249 -53 -1252 -268
-1719 -367 -129 -28 -316 -68 -415 -89 -99 -22 -317 -68 -485 -104 -376 -80
-991 -211 -1852 -395 -361 -78 -659 -141 -662 -141 -4 0 -5 372 -4 827 l3 827
58 12 57 11 0 -684 0 -685 26 6 c14 4 224 50 467 102 243 52 523 112 622 134
99 21 383 82 630 135 248 53 531 114 630 135 99 22 383 83 630 136 248 53 551
118 675 144 124 27 500 107 835 179 336 72 620 133 633 136 l22 5 0 684 0 683
53 9 52 9 3 -824 c1 -453 1 -826 -1 -827z m-6301 865 c511 -171 945 -316 964
-321 34 -11 34 -11 10 -19 -14 -4 -39 -7 -55 -8 -23 -1 -1853 600 -1935 635
-11 5 -9 9 10 14 14 5 37 8 51 9 15 1 444 -139 955 -310z m-74 -41 l968 -323
0 -826 0 -827 -132 44 c-73 24 -512 170 -976 325 l-842 281 0 824 c0 453 3
824 7 824 5 0 443 -145 975 -322z"/>
<path d="M5604 3436 c-11 -29 1 -61 24 -64 28 -4 39 20 24 54 -13 26 -40 32
-48 10z m43 -40 c-6 -17 -27 -18 -33 -2 -3 9 -3 24 1 34 6 16 7 16 21 -3 8
-10 13 -24 11 -29z"/>
<path d="M5734 2416 c-15 -12 -17 -19 -9 -43 7 -18 18 -28 30 -28 25 0 32 37
12 65 -12 17 -16 18 -33 6z m32 -31 c4 -14 3 -29 -1 -33 -8 -8 -35 26 -35 45
0 24 29 14 36 -12z"/>
<path d="M327 2314 c-13 -13 -7 -61 8 -74 24 -20 44 3 36 43 -6 30 -29 46 -44
31z m31 -37 c2 -19 -1 -27 -12 -27 -11 0 -16 10 -16 31 0 38 24 35 28 -4z"/>
<path d="M451 1287 c-23 -23 -9 -77 19 -77 25 0 33 15 25 49 -7 33 -27 45 -44
28z m32 -29 c6 -23 1 -38 -13 -38 -12 0 -23 37 -15 50 10 16 22 11 28 -12z"/>
</g>
</svg>
