<?xml version="1.0" standalone="no"?>
<!DOCTYPE svg PUBLIC "-//W3C//DTD SVG 20010904//EN"
 "http://www.w3.org/TR/2001/REC-SVG-20010904/DTD/svg10.dtd">
<svg version="1.0" xmlns="http://www.w3.org/2000/svg"
 width="150pt" height="150pt" viewBox="0 0 853.000000 330.000000"
 preserveAspectRatio="xMidYMid meet">

<g transform="translate(0.000000,330.000000) scale(0.100000,-0.100000)"
fill="#000000" stroke="none">
<path d="M5343 2620 c-16 -7 -23 -18 -23 -38 l0 -28 -312 -67 c-172 -36 -547
-116 -833 -177 -286 -61 -772 -164 -1080 -230 -308 -66 -794 -169 -1080 -230
-286 -61 -647 -138 -803 -171 -280 -60 -282 -61 -329 -45 -49 17 -81 20 -107
10 -14 -5 -16 -44 -16 -328 l0 -322 128 -41 c82 -27 137 -40 155 -36 l27 5 0
235 c0 184 3 234 13 230 6 -2 55 -18 107 -35 52 -17 587 -195 1189 -397 739
-246 1107 -365 1135 -365 23 0 51 7 62 14 26 19 18 17 559 132 248 52 650 138
895 190 245 52 603 128 795 169 193 41 393 84 445 95 52 11 167 36 255 55 88
18 214 45 280 60 66 14 300 64 520 111 220 47 465 99 545 116 80 17 159 31
175 30 61 -4 92 7 105 38 14 34 6 82 -18 103 -14 12 -2746 928 -2762 926 -3 0
-15 -4 -27 -9z m1386 -457 c740 -246 1338 -449 1330 -451 -8 -1 -619 200
-1359 447 -740 247 -1338 450 -1330 451 8 0 620 -201 1359 -447z m-1359 425
c30 -10 32 -12 14 -19 -35 -14 -54 -10 -54 11 0 24 -2 23 40 8z m59 -42 c7 -8
11 -27 9 -43 -2 -21 -9 -29 -28 -31 -14 -2 -275 -58 -580 -123 -305 -66 -638
-137 -740 -159 -102 -22 -225 -48 -275 -59 -98 -21 -1169 -251 -1680 -361
-176 -38 -479 -102 -672 -144 l-353 -76 -77 29 c-44 16 -71 31 -63 34 8 3 188
42 400 87 212 44 446 94 520 110 167 36 1005 214 1270 270 107 23 245 52 305
65 61 13 184 40 275 59 695 147 1105 235 1505 321 181 40 170 38 184 21z m168
-35 c84 -27 159 -53 167 -58 13 -7 -171 -51 -417 -99 -16 -3 -18 3 -15 44 l3
47 44 7 c60 10 73 24 69 70 -2 21 -3 38 -3 38 1 0 69 -22 152 -49z m-277 -115
c0 -34 -4 -46 -17 -50 -10 -3 -112 -25 -228 -50 -115 -25 -241 -51 -280 -60
-38 -8 -313 -67 -610 -131 -297 -64 -841 -181 -1210 -260 -368 -79 -807 -174
-975 -210 -515 -111 -634 -136 -671 -142 -24 -3 -58 3 -100 18 -81 28 -88 35
-47 42 18 3 179 37 358 75 1004 216 1326 285 1425 307 61 13 173 38 250 54
146 30 1040 223 1705 366 212 46 388 84 393 84 4 1 7 -19 7 -43z m669 -15
c107 -36 166 -61 155 -64 -11 -3 -56 -13 -100 -22 l-82 -17 -82 27 c-64 21
-79 30 -66 37 18 10 21 50 6 79 -6 10 -9 19 -7 19 2 0 81 -27 176 -59z m-185
33 c31 -31 17 -58 -39 -73 -37 -9 -939 -204 -1490 -321 -282 -60 -855 -183
-950 -204 -38 -9 -241 -52 -450 -96 -209 -45 -461 -99 -560 -120 -99 -22 -288
-62 -420 -90 -132 -29 -276 -59 -321 -69 l-81 -17 -78 25 c-58 19 -72 27 -59
33 11 4 190 44 399 88 209 45 504 108 655 140 342 73 1514 325 1790 385 113
24 302 65 420 90 385 83 761 163 950 204 215 46 214 46 234 25z m44 -114 c40
-12 71 -24 68 -27 -3 -3 -65 -18 -138 -33 l-133 -27 -3 40 c-2 21 -1 41 2 44
6 6 118 31 126 28 3 -1 38 -12 78 -25z m342 -46 c0 -19 -3 -34 -7 -34 -4 0
-135 -27 -292 -60 -157 -34 -351 -74 -431 -91 -80 -16 -183 -38 -230 -49 -47
-11 -319 -69 -605 -130 -286 -61 -783 -167 -1105 -236 -322 -69 -605 -129
-630 -134 -25 -5 -264 -56 -531 -114 l-486 -105 -84 26 c-46 14 -79 28 -74 29
6 2 114 26 240 53 127 27 937 201 1800 386 864 185 1633 349 1710 365 77 16
257 53 400 83 143 31 269 57 280 59 30 6 45 -10 45 -48z m162 6 c84 -28 160
-53 168 -57 16 -6 -127 -41 -173 -42 -16 -1 -60 8 -97 20 -68 20 -68 20 -55
46 9 16 10 35 5 54 -5 16 -7 29 -5 29 3 0 73 -23 157 -50z m-724 -12 c-2 -31
-8 -44 -20 -46 -15 -3 -18 4 -18 42 0 40 3 46 21 46 18 0 20 -5 17 -42z m-48
-11 l0 -43 -113 -22 c-62 -12 -119 -22 -126 -22 -8 0 -11 14 -9 42 l3 42 95
22 c52 12 107 22 123 23 25 1 27 -1 27 -42z m-260 -50 l0 -43 -762 -164 c-420
-90 -884 -189 -1033 -221 -148 -31 -418 -89 -600 -129 -181 -39 -424 -91 -540
-115 -115 -25 -322 -69 -459 -99 l-248 -54 -80 27 -80 27 1044 223 c573 123
1102 236 1173 252 139 31 983 211 1330 285 116 24 215 46 220 48 28 12 35 4
35 -37z m891 -9 c44 -11 79 -24 79 -27 0 -5 -622 -142 -643 -141 -5 0 -7 19
-5 42 l3 42 240 52 c132 28 242 52 244 53 2 0 39 -9 82 -21z m528 -47 c96 -31
170 -60 165 -64 -6 -3 -52 -13 -103 -22 -91 -16 -94 -15 -160 6 -82 27 -85 29
-72 42 14 14 14 74 0 82 -7 5 -8 -4 -4 -28 5 -24 3 -37 -7 -43 -7 -5 -238 -57
-513 -116 -275 -59 -594 -127 -710 -152 -115 -25 -347 -75 -515 -111 -488
-105 -2251 -483 -2417 -519 l-152 -33 -78 25 c-61 20 -73 27 -58 33 11 5 128
32 260 60 592 126 960 204 1350 289 231 50 536 115 678 145 142 31 299 64 350
76 51 11 153 33 227 49 277 59 482 103 720 155 277 61 678 147 790 168 41 9
75 15 75 16 0 0 78 -26 174 -58z m-1109 -86 c0 -38 -3 -45 -20 -45 -17 0 -20
7 -20 38 0 41 6 52 27 52 9 0 13 -14 13 -45z m-50 -9 c0 -39 -3 -45 -27 -51
-19 -4 -29 -2 -35 9 -13 24 -37 19 -48 -9 -11 -28 -28 -31 -95 -13 -36 10 -45
16 -45 34 0 19 8 24 58 34 31 7 82 18 112 25 81 20 80 20 80 -29z m1035 10
c59 -19 66 -24 45 -29 -24 -6 -1630 -352 -2145 -462 -615 -131 -1116 -239
-1300 -280 -110 -24 -329 -71 -488 -105 l-287 -62 -83 28 c-77 26 -80 28 -52
36 17 4 408 89 870 187 462 99 1209 259 1660 356 451 97 912 196 1025 220 445
94 595 127 599 131 12 11 94 1 156 -20z m652 -94 c13 -8 3 -13 -43 -22 -32 -6
-75 -16 -95 -21 -29 -7 -51 -4 -119 19 -56 19 -78 31 -67 35 21 8 22 55 3 83
-13 18 6 14 145 -32 87 -29 167 -57 176 -62z m-327 77 c15 -27 6 -47 -24 -59
-14 -5 -112 -28 -218 -50 -106 -23 -348 -75 -538 -115 -190 -41 -502 -108
-695 -149 -192 -41 -613 -131 -935 -200 -322 -69 -882 -189 -1245 -266 l-660
-142 -73 23 c-39 12 -72 25 -72 28 0 3 100 27 223 53 196 42 541 116 1967 423
1232 265 2158 464 2180 468 58 10 79 7 90 -14z m-1589 -64 c56 -13 125 4 -826
-200 -401 -86 -863 -185 -1025 -220 -162 -35 -548 -118 -856 -184 -309 -67
-571 -121 -581 -121 -23 0 -134 37 -145 48 -5 5 166 46 379 91 214 45 597 128
853 182 256 55 848 182 1315 282 l850 182 3 -27 c2 -20 10 -28 33 -33z m159
14 c0 -5 -7 -9 -15 -9 -15 0 -20 12 -9 23 8 8 24 -1 24 -14z m1470 -57 c81
-28 83 -29 50 -35 -19 -3 -181 -37 -360 -76 -302 -64 -697 -149 -1575 -337
-192 -41 -411 -88 -485 -104 -558 -122 -1779 -380 -1795 -379 -36 0 -161 46
-145 52 8 3 166 38 350 77 184 40 502 108 705 151 204 44 465 100 580 124 116
24 359 76 540 115 359 77 497 107 795 170 107 22 245 52 305 65 61 13 184 40
275 59 273 59 541 116 605 130 33 8 62 14 65 15 3 1 44 -12 90 -27z m342 -27
c14 -54 152 -18 -1232 -314 -360 -77 -794 -170 -965 -206 -1223 -261 -1916
-409 -2011 -430 l-111 -25 -79 27 c-62 21 -74 28 -59 34 11 4 169 40 350 78
446 95 3587 766 3700 791 50 11 122 27 160 35 39 8 97 21 130 29 87 20 107 17
117 -19z m179 -17 c87 -29 159 -55 159 -58 0 -3 -42 -14 -93 -25 l-92 -21 -77
24 c-72 22 -77 25 -67 44 6 12 9 36 6 54 -3 19 -3 34 0 34 3 0 77 -24 164 -52z
m-150 -79 c35 -12 67 -25 71 -28 5 -4 -263 -65 -595 -135 -331 -70 -629 -134
-662 -142 -33 -8 -386 -83 -785 -168 -399 -85 -1053 -225 -1455 -311 l-730
-157 -85 28 c-53 17 -78 29 -65 32 189 40 971 206 1370 292 286 61 858 183
1270 271 413 88 811 173 885 189 74 16 209 45 300 65 91 19 215 46 275 59 138
30 129 30 206 5z m529 -49 c96 -32 172 -59 169 -59 -4 -1 -50 -10 -104 -21
l-97 -20 -72 21 c-89 27 -89 27 -71 45 17 18 19 47 5 75 -6 10 -9 19 -8 19 2
0 82 -27 178 -60z m-178 25 c21 -46 -7 -59 -222 -105 -107 -22 -393 -83 -635
-135 -466 -100 -1170 -250 -1570 -335 -132 -28 -438 -93 -680 -145 -242 -52
-528 -112 -635 -135 -107 -23 -265 -57 -350 -75 -224 -50 -233 -50 -315 -22
-42 15 -64 27 -55 31 8 3 155 35 325 71 171 36 339 72 375 80 36 8 468 101
960 205 492 105 957 204 1032 221 343 74 444 95 933 199 286 61 576 124 645
140 160 37 177 37 192 5z m437 -109 c16 -34 5 -79 -20 -84 -11 -2 -15 8 -16
39 -1 23 -7 47 -13 53 -17 17 -11 28 12 24 13 -2 29 -15 37 -32z m-386 -1 c32
-9 57 -19 55 -21 -3 -3 -1160 -252 -2128 -459 -113 -24 -342 -73 -510 -110
-168 -36 -390 -83 -495 -106 -104 -22 -251 -53 -325 -70 -74 -16 -280 -60
-458 -98 l-323 -69 -82 27 -82 28 50 11 c28 7 347 75 710 152 693 148 1115
238 1965 419 283 61 727 155 985 210 259 54 479 102 490 104 29 8 82 2 148
-18z m327 -39 c0 -33 -1 -34 -67 -50 -38 -8 -144 -32 -238 -51 -93 -20 -399
-85 -680 -145 -280 -60 -712 -152 -960 -205 -774 -165 -1094 -233 -1290 -275
-104 -22 -327 -70 -495 -106 -168 -35 -406 -86 -530 -112 l-225 -48 -6 40 c-4
23 -5 42 -4 44 4 4 405 92 1155 252 228 48 1512 324 1935 415 725 156 1232
264 1350 288 35 6 55 -11 55 -47z m-7088 -46 c95 -34 702 -237 1348 -453 646
-215 1168 -393 1159 -395 -14 -3 -491 155 -1894 627 -330 111 -643 216 -695
233 -88 28 -131 48 -103 48 7 0 90 -27 185 -60z m12 -33 c136 -46 213 -76 203
-80 -20 -7 -24 -76 -6 -94 7 -7 -29 1 -80 18 -50 16 -96 29 -101 29 -6 0 -10
-89 -10 -246 l0 -245 -22 7 c-33 9 -56 23 -40 24 27 0 8 80 -20 80 -17 0 -29
-40 -17 -61 9 -18 8 -20 -8 -15 -10 3 -43 14 -73 23 l-55 18 -3 308 c-1 169 1
307 5 307 5 0 107 -33 227 -73z m601 -203 c187 -63 346 -116 353 -119 10 -4 9
-10 -3 -28 -12 -19 -13 -30 -5 -52 6 -15 9 -29 8 -31 -3 -3 -262 82 -322 105
-27 11 -28 13 -11 25 33 24 -3 107 -41 92 -12 -5 -15 -17 -12 -51 2 -28 -1
-44 -7 -42 -5 2 -83 28 -172 57 -144 48 -160 55 -146 68 17 18 12 80 -9 95 -9
6 -7 7 7 2 11 -4 173 -58 360 -121z m-378 87 c-2 -10 0 -26 5 -35 7 -12 5 -16
-6 -16 -17 0 -32 42 -21 59 11 18 28 12 22 -8z m-167 -267 c0 -227 -1 -234
-20 -234 -19 0 -20 7 -20 239 0 234 0 239 20 234 19 -5 20 -14 20 -239z m544
141 c-4 -8 -1 -22 6 -30 15 -18 7 -30 -15 -22 -20 8 -21 67 0 67 9 0 12 -6 9
-15z m579 -154 c148 -50 171 -61 147 -76 -15 -10 -12 -48 7 -75 13 -18 13 -22
2 -18 -8 3 -92 31 -187 64 -138 47 -168 61 -152 68 22 10 26 45 9 78 -9 17 -9
20 2 16 8 -3 85 -29 172 -57z m-198 29 c-4 -12 -1 -28 6 -36 16 -19 4 -30 -16
-14 -15 13 -20 51 -8 63 14 14 24 6 18 -13z m378 -130 c-3 -11 0 -27 7 -35 10
-12 10 -15 -3 -15 -24 0 -40 36 -27 60 13 25 30 18 23 -10z m198 -27 c143 -48
165 -59 153 -70 -17 -18 -18 -41 -1 -73 13 -25 9 -24 -165 34 -145 48 -176 61
-167 72 6 8 9 32 7 54 -2 22 -1 40 2 40 3 0 80 -25 171 -57z m-1613 -32 c3
-16 -1 -22 -10 -19 -7 3 -15 15 -16 27 -3 16 1 22 10 19 7 -3 15 -15 16 -27z
m2020 -105 c126 -42 160 -56 134 -56 -24 0 -33 -38 -17 -70 9 -16 13 -30 11
-30 -5 0 -247 83 -314 107 -34 13 -40 18 -28 25 19 11 22 68 4 86 -8 8 2 7 32
-3 25 -8 105 -35 178 -59z m-224 16 c4 -24 2 -32 -7 -30 -6 3 -13 22 -15 44
-4 46 12 36 22 -14z m573 -133 c147 -48 161 -55 148 -69 -29 -32 -10 -89 28
-91 12 0 16 -3 10 -6 -7 -2 -98 24 -202 58 -170 57 -188 65 -170 77 18 12 29
69 11 58 -4 -2 -8 4 -8 15 0 11 5 18 11 16 5 -2 83 -28 172 -58z m-197 25 c0
-16 4 -23 11 -18 7 4 7 -1 -1 -16 -11 -21 -12 -21 -25 -3 -15 19 -19 46 -8 56
13 14 23 6 23 -19z m450 -93 c19 -36 12 -77 -15 -89 -23 -11 -24 -10 -18 18 3
19 0 39 -11 55 -21 32 -20 35 9 35 14 0 29 -8 35 -19z m-67 -70 c9 -11 7 -13
-8 -10 -22 5 -32 40 -19 67 6 13 9 10 12 -13 2 -16 9 -36 15 -44z"/>
<path d="M5477 2523 c-11 -11 -8 -48 5 -61 29 -29 54 0 38 43 -9 24 -29 32
-43 18z m33 -33 c0 -11 -4 -20 -10 -20 -5 0 -10 2 -10 4 0 2 -3 11 -6 20 -4
11 -1 16 10 16 9 0 16 -8 16 -20z"/>
<path d="M819 1566 c-17 -36 2 -76 35 -76 28 0 40 37 22 72 -16 33 -43 34 -57
4z m31 -9 c0 -13 5 -28 12 -35 15 -15 4 -26 -17 -19 -17 7 -22 77 -5 77 6 0
10 -10 10 -23z"/>
<path d="M906 1535 c-3 -8 -1 -27 4 -41 12 -31 44 -29 48 4 6 40 -38 72 -52
37z m44 -31 c0 -8 -7 -14 -15 -14 -10 0 -15 10 -15 26 0 22 2 25 15 14 8 -7
15 -19 15 -26z"/>
</g>
</svg>
