<?xml version="1.0" standalone="no"?>
<!DOCTYPE svg PUBLIC "-//W3C//DTD SVG 20010904//EN"
 "http://www.w3.org/TR/2001/REC-SVG-20010904/DTD/svg10.dtd">
<svg version="1.0" xmlns="http://www.w3.org/2000/svg"
 width="150pt" height="150pt" viewBox="0 0 391.000000 539.000000"
 preserveAspectRatio="xMidYMid meet">

<g transform="translate(0.000000,539.000000) scale(0.100000,-0.100000)"
fill="#000000" stroke="none">
<path d="M2045 5069 c-275 -59 -754 -163 -1065 -229 -311 -66 -581 -125 -601
-130 -20 -6 -46 -10 -58 -10 l-21 0 0 -2044 0 -2043 576 -193 576 -193 267 56
c330 70 1423 303 1666 356 99 22 217 47 263 57 l82 17 -2 2041 -3 2041 -570
192 c-313 105 -579 192 -590 191 -11 0 -245 -49 -520 -109z m1627 -280 c-4 -3
-149 -37 -322 -74 -644 -137 -775 -166 -1230 -263 -256 -56 -510 -110 -565
-122 l-100 -21 -563 188 c-310 103 -560 189 -555 190 4 2 440 95 968 209 528
113 1027 220 1110 238 l150 33 557 -186 c307 -102 554 -189 550 -192z m46
-2036 l-3 -2028 -75 -17 c-41 -9 -138 -31 -215 -47 -77 -16 -277 -59 -445 -95
-168 -36 -453 -97 -635 -135 -181 -39 -446 -95 -588 -126 -142 -30 -267 -55
-277 -55 -20 0 -20 21 -20 2024 l0 2023 103 21 c99 20 436 93 1587 342 300 65
551 119 558 119 10 1 12 -407 10 -2026z m-2831 1730 l563 -188 0 -2026 0
-2025 -472 158 c-260 87 -516 173 -568 191 l-95 32 -3 2023 c-1 1112 1 2022 5
2022 4 0 261 -84 570 -187z"/>
<path d="M3415 4630 c-121 -26 -560 -120 -975 -209 -415 -89 -790 -169 -833
-179 l-77 -17 -3 -1942 -2 -1943 73 4 c42 3 83 11 96 20 13 8 362 87 777 175
677 145 864 185 1107 237 l72 16 0 1944 c0 1069 -3 1944 -7 1943 -5 -1 -107
-23 -228 -49z m223 -1897 c-2 -1061 -4 -1615 -5 -1233 -7 1850 -7 3160 0 3160
4 0 6 -867 5 -1927z m-55 1910 c-7 -2 -19 -2 -25 0 -7 3 -2 5 12 5 14 0 19 -2
13 -5z m-63 -13 c-14 -4 -34 -8 -45 -8 -16 0 -15 2 5 8 14 4 34 8 45 8 16 0
15 -2 -5 -8z m100 -1904 l0 -1913 -32 -6 c-40 -7 -817 -171 -908 -192 -126
-29 -960 -205 -970 -205 -6 0 -10 84 -10 236 0 219 -1 235 -17 231 -53 -15
-74 -16 -97 -7 l-26 10 0 1659 c0 1572 1 1660 18 1665 9 2 103 23 207 45 105
22 285 60 400 85 116 25 424 90 685 145 712 151 714 151 725 155 6 3 13 5 18
5 4 1 7 -860 7 -1913z m-177 1887 c-7 -2 -19 -2 -25 0 -7 3 -2 5 12 5 14 0 19
-2 13 -5z m-46 -9 c-3 -3 -12 -4 -19 -1 -8 3 -5 6 6 6 11 1 17 -2 13 -5z m-50
-10 c-3 -3 -12 -4 -19 -1 -8 3 -5 6 6 6 11 1 17 -2 13 -5z m-44 -11 c-7 -2
-19 -2 -25 0 -7 3 -2 5 12 5 14 0 19 -2 13 -5z m-50 -10 c-7 -2 -19 -2 -25 0
-7 3 -2 5 12 5 14 0 19 -2 13 -5z m-50 -10 c-7 -2 -19 -2 -25 0 -7 3 -2 5 12
5 14 0 19 -2 13 -5z m-46 -9 c-3 -3 -12 -4 -19 -1 -8 3 -5 6 6 6 11 1 17 -2
13 -5z m-44 -11 c-7 -2 -19 -2 -25 0 -7 3 -2 5 12 5 14 0 19 -2 13 -5z m-46
-9 c-3 -3 -12 -4 -19 -1 -8 3 -5 6 6 6 11 1 17 -2 13 -5z m-50 -10 c-3 -3 -12
-4 -19 -1 -8 3 -5 6 6 6 11 1 17 -2 13 -5z m-44 -11 c-7 -2 -19 -2 -25 0 -7 3
-2 5 12 5 14 0 19 -2 13 -5z m-46 -9 c-3 -3 -12 -4 -19 -1 -8 3 -5 6 6 6 11 1
17 -2 13 -5z m-50 -10 c-3 -3 -12 -4 -19 -1 -8 3 -5 6 6 6 11 1 17 -2 13 -5z
m-90 -20 c-3 -3 -12 -4 -19 -1 -8 3 -5 6 6 6 11 1 17 -2 13 -5z m-50 -10 c-3
-3 -12 -4 -19 -1 -8 3 -5 6 6 6 11 1 17 -2 13 -5z m-94 -21 c-7 -2 -19 -2 -25
0 -7 3 -2 5 12 5 14 0 19 -2 13 -5z m-46 -9 c-3 -3 -12 -4 -19 -1 -8 3 -5 6 6
6 11 1 17 -2 13 -5z m-50 -10 c-3 -3 -12 -4 -19 -1 -8 3 -5 6 6 6 11 1 17 -2
13 -5z m-40 -10 c-3 -3 -12 -4 -19 -1 -8 3 -5 6 6 6 11 1 17 -2 13 -5z m-100
-20 c-3 -3 -12 -4 -19 -1 -8 3 -5 6 6 6 11 1 17 -2 13 -5z m-40 -10 c-3 -3
-12 -4 -19 -1 -8 3 -5 6 6 6 11 1 17 -2 13 -5z m-50 -10 c-3 -3 -12 -4 -19 -1
-8 3 -5 6 6 6 11 1 17 -2 13 -5z m-50 -10 c-3 -3 -12 -4 -19 -1 -8 3 -5 6 6 6
11 1 17 -2 13 -5z m-90 -20 c-3 -3 -12 -4 -19 -1 -8 3 -5 6 6 6 11 1 17 -2 13
-5z m-50 -10 c-3 -3 -12 -4 -19 -1 -8 3 -5 6 6 6 11 1 17 -2 13 -5z m-140 -30
c-3 -3 -12 -4 -19 -1 -8 3 -5 6 6 6 11 1 17 -2 13 -5z m-280 -60 c-3 -3 -12
-4 -19 -1 -8 3 -5 6 6 6 11 1 17 -2 13 -5z m-160 -2532 c-1 -455 -2 -80 -2
833 0 913 1 1285 2 827 2 -459 2 -1206 0 -1660z m27 -858 c14 -5 16 -37 16
-250 0 -142 -4 -244 -9 -244 -41 0 -41 2 -41 256 0 142 4 244 9 244 5 0 16 -3
25 -6z m116 -238 c0 -262 1 -256 -51 -256 -18 0 -19 9 -19 184 0 228 7 304 29
309 42 12 41 17 41 -237z m-83 -88 c-1 -62 -3 -14 -3 107 0 121 2 172 3 113 2
-59 2 -158 0 -220z m0 -150 c-3 -7 -5 -2 -5 12 0 14 2 19 5 13 2 -7 2 -19 0
-25z"/>
<path d="M368 4424 c-11 -10 3 -34 19 -34 8 0 13 7 11 17 -3 18 -20 27 -30 17z"/>
<path d="M415 790 c-7 -12 2 -30 16 -30 5 0 9 9 9 20 0 21 -15 27 -25 10z"/>
</g>
</svg>
