<?xml version="1.0" standalone="no"?>
<!DOCTYPE svg PUBLIC "-//W3C//DTD SVG 20010904//EN"
 "http://www.w3.org/TR/2001/REC-SVG-20010904/DTD/svg10.dtd">
<svg version="1.0" xmlns="http://www.w3.org/2000/svg"
 width="150pt" height="150pt" viewBox="0 0 785.000000 332.000000"
 preserveAspectRatio="xMidYMid meet">

<g transform="translate(0.000000,332.000000) scale(0.100000,-0.100000)"
fill="#000000" stroke="none">
<path d="M5045 2460 c-93 -20 -352 -76 -575 -123 -223 -48 -448 -96 -500 -107
-52 -11 -347 -74 -655 -140 -308 -66 -834 -178 -1170 -250 -335 -72 -648 -139
-695 -149 -47 -9 -230 -48 -407 -86 l-323 -69 0 -331 0 -331 128 -41 c79 -26
137 -39 155 -36 l27 5 0 229 c0 126 3 229 8 229 4 0 93 -29 197 -64 1184 -400
1570 -526 1610 -526 24 0 82 -13 128 -30 47 -16 96 -30 108 -30 13 0 201 38
418 85 500 106 1116 238 1951 416 360 76 727 155 815 174 88 19 394 84 680
145 286 61 528 113 538 116 14 5 17 18 17 89 l0 83 -64 22 c-35 11 -70 30 -78
41 -9 14 -290 112 -1057 369 -574 193 -1054 349 -1065 349 -12 -1 -97 -18
-191 -39z m1224 -315 c558 -186 1010 -340 1005 -342 -14 -5 -2026 666 -2039
680 -7 7 -5 8 5 5 8 -3 472 -157 1029 -343z m584 -225 c334 -111 607 -204 605
-205 -2 -1 -70 -17 -153 -34 -82 -18 -199 -43 -260 -56 -60 -13 -303 -65 -540
-115 -236 -49 -459 -97 -495 -105 -36 -8 -141 -31 -235 -50 -93 -20 -231 -49
-305 -65 -138 -30 -704 -151 -1550 -330 -261 -55 -558 -119 -659 -141 l-183
-39 -1129 377 c-620 208 -1125 381 -1121 384 4 4 146 36 317 72 384 82 1343
286 1935 413 784 168 2068 441 2095 446 11 2 256 -76 545 -173 289 -96 799
-267 1133 -379z m482 -140 c3 -6 -1 -7 -9 -4 -18 7 -21 14 -7 14 6 0 13 -4 16
-10z m151 -217 c-5 -5 -141 -35 -886 -193 -206 -44 -418 -89 -470 -100 -52
-12 -135 -29 -185 -40 -83 -17 -1208 -257 -2368 -506 -269 -57 -490 -104 -493
-104 -2 0 -4 34 -4 75 0 41 2 75 4 75 7 0 1184 250 2286 485 442 94 1125 240
1600 341 173 36 360 76 415 88 l100 22 3 -69 c2 -38 1 -72 -2 -74z m-5816
-329 c487 -163 948 -317 1024 -342 76 -25 134 -48 127 -50 -6 -2 -159 46 -339
107 -180 61 -637 214 -1017 342 -379 127 -692 233 -694 235 -13 12 91 -21 899
-292z m51 -45 c1184 -398 1098 -370 1119 -359 20 11 60 -20 61 -48 0 -9 2 -25
4 -34 3 -17 -20 -58 -33 -58 -4 0 -7 22 -7 50 0 34 -6 55 -18 67 -15 15 -17
15 -12 2 5 -13 0 -15 -25 -11 -29 4 -30 3 -30 -36 0 -47 22 -72 48 -55 11 7
16 23 16 44 -2 30 -1 32 8 12 12 -26 -2 -77 -23 -81 -8 -1 -390 124 -849 278
-459 155 -874 294 -922 310 l-88 28 0 -245 c0 -231 -1 -244 -18 -239 -10 4
-63 21 -117 39 l-100 34 -3 316 c-1 175 -1 317 1 317 2 0 446 -149 988 -331z
m-717 85 c14 -5 16 -36 16 -235 0 -222 -1 -229 -20 -229 -19 0 -20 7 -20 235
0 129 2 235 4 235 2 0 11 -3 20 -6z m1988 -480 l78 -26 0 -73 0 -74 -91 32
c-50 17 -86 33 -80 35 16 5 24 69 13 102 -6 16 -8 30 -4 30 4 0 42 -12 84 -26z
m-179 -23 c-3 -10 0 -22 6 -25 17 -11 13 -36 -4 -30 -17 7 -30 47 -20 63 11
18 23 12 18 -8z"/>
<path d="M780 1461 c-15 -28 -13 -45 9 -70 36 -42 69 0 45 58 -15 35 -38 40
-54 12z m30 -24 c0 -13 5 -28 12 -35 9 -9 8 -12 -5 -12 -20 0 -36 27 -30 51 7
27 23 24 23 -4z"/>
<path d="M863 1434 c-7 -20 8 -48 29 -52 19 -4 31 24 23 49 -8 23 -43 25 -52
3z m41 -35 c-11 -18 -24 -8 -24 19 1 26 1 26 15 8 8 -10 12 -23 9 -27z"/>
<path d="M870 935 c-13 -16 -6 -48 14 -64 19 -16 40 12 32 43 -7 29 -30 40
-46 21z m33 -48 c-3 -6 -11 -3 -19 8 -7 10 -11 22 -7 28 3 6 11 3 19 -8 7 -10
11 -22 7 -28z"/>
</g>
</svg>
